<?xml version="1.0" encoding="UTF-8" standalone="no"?>
<!-- Created with Inkscape (http://www.inkscape.org/) -->

<svg
   width="55.17944mm"
   height="74.885803mm"
   viewBox="0 0 55.17944 74.885804"
   version="1.1"
   id="svg1"
   xml:space="preserve"
   xmlns:xlink="http://www.w3.org/1999/xlink"
   xmlns="http://www.w3.org/2000/svg"
   xmlns:svg="http://www.w3.org/2000/svg"><defs
     id="defs1"><linearGradient
       id="linearGradient16"><stop
         style="stop-color:#800080;stop-opacity:1;"
         offset="0"
         id="stop16" /><stop
         style="stop-color:#00b290;stop-opacity:1;"
         offset="1"
         id="stop17" /></linearGradient><linearGradient
       id="linearGradient14"><stop
         style="stop-color:#800080;stop-opacity:1;"
         offset="0"
         id="stop14" /><stop
         style="stop-color:#00b290;stop-opacity:1;"
         offset="1"
         id="stop15" /></linearGradient><linearGradient
       id="linearGradient2"><stop
         style="stop-color:#800080;stop-opacity:1;"
         offset="0"
         id="stop2" /><stop
         style="stop-color:#00b290;stop-opacity:1;"
         offset="1"
         id="stop3" /></linearGradient><linearGradient
       xlink:href="#linearGradient2"
       id="linearGradient3"
       x1="106.35109"
       y1="59.646004"
       x2="55.476608"
       y2="110.52048"
       gradientUnits="userSpaceOnUse" /><linearGradient
       xlink:href="#linearGradient14"
       id="linearGradient15"
       x1="106.35109"
       y1="59.646004"
       x2="55.476608"
       y2="110.52048"
       gradientUnits="userSpaceOnUse" /><linearGradient
       xlink:href="#linearGradient16"
       id="linearGradient17"
       x1="106.35114"
       y1="114.93522"
       x2="55.476562"
       y2="131.38715"
       gradientUnits="userSpaceOnUse" /></defs><g
     id="layer1"
     transform="translate(-53.324129,-57.493524)"><circle
       style="fill:#ffffff;fill-opacity:1;stroke:#ffffff;stroke-width:4.30486;stroke-dasharray:none;stroke-opacity:1"
       id="circle12"
       cx="80.913849"
       cy="85.083244"
       r="25.43729" /><circle
       style="fill:none;stroke:url(#linearGradient3);stroke-width:3.969;stroke-dasharray:none;stroke-opacity:1"
       id="path1"
       cx="80.913849"
       cy="85.083244"
       r="23.45274" /><path
       style="font-weight:bold;font-size:45.9959px;font-family:Monospace;-inkscape-font-specification:'Monospace Bold';fill:url(#linearGradient15);fill-opacity:1;stroke-width:10.781"
       d="m 70.818561,99.861232 v -7.680956 q 1.931468,1.976387 4.109985,3.009498 2.200976,1.033111 4.42441,1.033111 2.605237,0 3.818019,-1.302619 1.212783,-1.302618 1.212783,-4.154903 V 73.831326 h -8.107676 v -5.839323 h 14.733061 v 22.77336 q 0,6.13129 -2.582777,8.781444 -2.560319,2.627693 -8.467019,2.627693 -2.133598,0 -4.469328,-0.58393 -2.31327,-0.58393 -4.671458,-1.729338 z"
       id="text1"
       aria-label="J" /><path
       style="font-weight:bold;font-size:21.7518px;font-family:Monospace;-inkscape-font-specification:'Monospace Bold';fill:url(#linearGradient17);stroke:#ffffff;stroke-width:1.98438;stroke-linecap:butt;stroke-linejoin:round;stroke-dasharray:none;stroke-opacity:1;paint-order:stroke markers fill"
       d="m 55.476563,130.29318 v -3.63238 q 0.913406,0.93465 1.943642,1.42321 1.040858,0.48857 2.092337,0.48857 1.232035,0 1.805569,-0.61602 0.573534,-0.61602 0.573534,-1.96489 v -8.00823 h -3.83418 v -2.76146 h 6.967374 v 10.76969 q 0,2.89954 -1.221415,4.15281 -1.210793,1.24266 -4.004116,1.24266 -1.008994,0 -2.113578,-0.27614 -1.093962,-0.27615 -2.209167,-0.81782 z m 13.764812,-12.30974 v -2.76146 h 9.442065 v 2.76146 h -3.154436 v 10.33423 h 3.154436 v 2.76146 h -9.442065 v -2.76146 h 3.154435 v -10.33423 z m 16.685585,6.13894 q -2.368482,-0.90279 -3.207541,-1.89054 -0.839058,-0.99837 -0.839058,-2.67649 0,-2.15606 1.380729,-3.3881 1.38073,-1.23203 3.791696,-1.23203 1.093962,0 2.187925,0.2549 1.093963,0.24428 2.166683,0.73285 v 3.05885 q -1.008994,-0.71161 -2.049852,-1.08334 -1.040858,-0.37174 -2.060473,-0.37174 -1.136447,0 -1.741844,0.4567 -0.605397,0.45671 -0.605397,1.30639 0,0.6585 0.435461,1.09396 0.446082,0.42484 1.848054,0.94527 l 1.348866,0.50981 q 1.91178,0.70098 2.814564,1.85867 0.902785,1.15769 0.902785,2.92077 0,2.40035 -1.423214,3.5899 -1.412592,1.17893 -4.280261,1.17893 -1.178931,0 -2.368482,-0.28677 -1.178931,-0.27614 -2.283514,-0.82843 v -3.23941 q 1.253277,0.89217 2.421587,1.32763 1.17893,0.43546 2.325998,0.43546 1.157688,0 1.794948,-0.52043 0.63726,-0.53105 0.63726,-1.47632 0,-0.71161 -0.42484,-1.24266 -0.42484,-0.54167 -1.232035,-0.84968 z m 14.22152,-6.03273 -1.476323,6.48943 h 2.963263 z m -1.911784,-2.86767 h 3.834184 l 4.28026,15.85715 h -3.1332 l -0.97713,-3.91915 h -4.195292 l -0.955889,3.91915 h -3.133194 z"
       id="text9"
       aria-label="JISA" /></g></svg>
